# AST/ASF file generated using VICON BodyLanguage
# -----------------------------------------------
:version 1.10
:name VICON
:units
  mass 1.0
  length 0.45
  angle deg
:documentation
   .ast/.asf automatically generated from VICON data using
   VICON BodyBuilder and BodyLanguage model FoxedUp or BRILLIANT.MOD
:root
   order TX TY TZ RX RY RZ
   axis XYZ
   position 0 0 0  
   orientation 0 0 0 
:bonedata
  begin
     id 1 
     name lhipjoint
     direction 0.623415 -0.642378 0.445763 
     length 2.49859 
     axis 0 0 0  XYZ
  end
  begin
     id 2 
     name lfemur
     direction 0.34202 -0.939693 0  
     length 6.69689  
     axis 0 0 20  XYZ
    dof rx ry rz
    limits (-160.0 20.0)
           (-70.0 70.0)
           (-60.0 70.0)
  end
  begin
     id 3 
     name ltibia
     direction 0.34202 -0.939693 0   
     length 7.37574   
     axis 0 0 20   XYZ
    dof rx
    limits (-10.0 170.0)
  end
  begin
     id 4 
     name lfoot
     direction 0.084323 -0.231675 0.969132   
     length 2.09111   
     axis -90 7.62852e-016 20   XYZ
    dof rx rz
    limits (-45.0 90.0)
           (-70.0 20.0)
  end
  begin
     id 5 
     name ltoes
     direction 1.5357e-011 -4.21957e-011 1   
     length 1.04989   
     axis -90 7.62852e-016 20   XYZ
    dof rx
    limits (-90.0 20.0)
  end
  begin
     id 6 
     name rhipjoint
     direction -0.605402 -0.653903 0.45376   
     length 2.45455  
     axis 0 0 0  XYZ 
  end
  begin
     id 7 
     name rfemur
     direction -0.34202 -0.939693 0   
     length 6.64523   
     axis 0 0 -20   XYZ
    dof rx ry rz
    limits (-160.0 20.0)
           (-70.0 70.0)
           (-70.0 60.0)
  end
  begin
     id 8 
     name rtibia
     direction -0.34202 -0.939693 0   
     length 7.3339   
     axis 0 0 -20   XYZ
    dof rx
    limits (-10.0 170.0)
 end
 begin
     id 9 
     name rfoot
     direction -0.120854 -0.332043 0.93549   
     length 2.23135  
     axis -90 -7.62852e-016 -20   XYZ
    dof rx rz
    limits (-45.0 90.0)
           (-20.0 70.0)
  end
  begin
     id 10 
     name rtoes
     direction -1.53563e-011 -4.21914e-011 1   
     length 1.10614   
     axis -90 -7.62852e-016 -20   XYZ
    dof rx
    limits (-90.0 20.0)
  end
  begin
     id 11 
     name lowerback
     direction 0.0319682 0.998615 -0.0417941   
     length 2.02718   
     axis 0 0 0   XYZ
    dof rx ry rz
    limits (-20.0 45.0)
           (-30.0 30.0)
           (-30.0 30.0)
  end
  begin
     id 12 
     name upperback
     direction 7.63181e-005 0.995808 0.0914691   
     length 1.97539   
     axis 0 0 0   XYZ
    dof rx ry rz
    limits (-20.0 45.0)
           (-30.0 30.0)
           (-30.0 30.0)
  end
  begin
     id 13 
     name thorax
     direction -0.016423 0.993627 0.111514   
     length 2.00349   
     axis 0 0 0   XYZ
    dof rx ry rz
    limits (-20.0 45.0)
           (-30.0 30.0)
           (-30.0 30.0)
  end
  begin
     id 14 
     name lowerneck
     direction -0.174763 0.981668 -0.0760716   
     length 1.71436   
     axis 0 0 0   XYZ
    dof rx ry rz
    limits (-20.0 45.0)
           (-30.0 30.0)
           (-30.0 30.0)
  end
  begin
     id 15 
     name upperneck
     direction 0.345458 0.934587 -0.0848868   
     length 1.72805   
     axis 0 0 0   XYZ
    dof rx ry rz
    limits (-20.0 45.0)
           (-30.0 30.0)
           (-30.0 30.0)
  end
  begin
     id 16
     name head
     direction 0.13001 0.989848 -0.0574291  
     length 1.767  
     axis 0 0 0   XYZ
    dof rx ry rz
    limits (-20.0 45.0)
           (-30.0 30.0)
           (-30.0 30.0)
  end
  begin
     id 17 
     name lclavicle
     direction 0.952951 0.290122 0.0878234  
     length 3.54654  
     axis 0 0 0   XYZ
    dof ry rz
    limits (-20.0 10.0)
           (0.0 20.0)
  end
  begin
     id 18 
     name lhumerus
     direction 1 -4.48957e-011 -4.56525e-028   
     length 5.19807   
     axis 180 -30 -90   XYZ
    dof rx ry rz
    limits (-60.0 90.0)
           (-90.0 90.0)
           (-90.0 90.0)
  end
  begin
     id 19
     name lradius
     direction 1 -4.48979e-011 -2.0317e-027   
     length 3.0937   
     axis 180 -30 -90   XYZ
    dof rx
    limits (-10.0 170.0)
  end
  begin
     id 20
     name lwrist
     direction 1 -4.48953e-011 -3.05809e-027   
     length 1.54685   
     axis 8.48514e-016 90 90   XYZ
    dof ry
    limits (-180.0 0.0)
 end
  begin
     id 21 
     name lhand
     direction 1 -4.48952e-011 -6.11639e-027   
     length 0.672632   
     axis 3.9013e-015 90 90   XYZ
    dof rx rz
    limits (-90.0 90.0)
           (-45.0 45.0)
  end
  begin
     id 22 
     name lfingers
     direction 1 -4.48925e-011 -1.22426e-026   
     length 0.542293   
     axis 7.80276e-015 90 90   XYZ
    dof rx
    limits (0.0 90.0)
  end
  begin
     id 23
     name lthumb
     direction 0.707107 -6.3486e-011 0.707107   
     length 0.778628   
     axis -90 45 5.37419e-014   XYZ
    dof rx rz
    limits (-45.0 45.0)
           (-45.0 45.0)
  end
  begin
     id 24 
     name rclavicle
     direction -0.960732 0.273675 -0.0457849   
     length 3.52079  
     axis 0 0 0   XYZ 
    dof ry rz
    limits (-10.0 20.0)
           (-20.0 0.0)
  end
  begin
     id 25 
     name rhumerus
     direction -1 -4.48976e-011 -1.63613e-027  
     length 5.45222   
     axis 180 30 90   XYZ
    dof rx ry rz
    limits (-90.0 60.0)
           (-90.0 90.0)
           (-90.0 90.0)
  end
  begin
     id 26 
     name rradius
     direction -1 -4.48957e-011 -7.00033e-028   
     length 3.01284   
     axis 180 30 90   XYZ
    dof rx
    limits (-10.0 170.0)
  end
  begin
     id 27 
     name rwrist
     direction -1 -4.48983e-011 -3.05543e-027   
     length 1.50642   
     axis 8.48514e-016 -90 -90   XYZ
    dof ry
    limits (-180.0 0.0)
  end
  begin
     id 28
     name rhand
     direction -1 -4.48984e-011 -6.11072e-027   
     length 0.622296   
     axis 3.9013e-015 -90 -90   XYZ
    dof rx rz
    limits (-90.0 90.0)
           (-45.0 45.0)
  end
  begin
     id 29
     name rfingers
     direction -1 -4.48865e-011 -1.22637e-026   
     length 0.501711   
     axis 7.80276e-015 -90 -90   XYZ
    dof rx
    limits (0.0 90.0)
  end
  begin
     id 30
     name rthumb
     direction -0.707107 -6.34932e-011 0.707107   
     length 0.72036   
     axis -90 -45 -5.37419e-014   XYZ
    dof rx rz
    limits (-45.0 45.0)
           (-45.0 45.0)
  end
:hierarchy
  begin
    root lhipjoint rhipjoint lowerback
    lhipjoint lfemur
    lfemur ltibia
    ltibia lfoot
    lfoot ltoes
    rhipjoint rfemur
    rfemur rtibia
    rtibia rfoot
    rfoot rtoes
    lowerback upperback
    upperback thorax
    thorax lowerneck lclavicle rclavicle
    lowerneck upperneck
    upperneck head
    lclavicle lhumerus
    lhumerus lradius
    lradius lwrist
    lwrist lhand lthumb
    lhand lfingers
    rclavicle rhumerus
    rhumerus rradius
    rradius rwrist
    rwrist rhand rthumb
    rhand rfingers
  end

#!OML:ASF H:\Not Pregnant\Project 1\Capture day 1\Session 1\non-pregnant.ASF
:FULLY-SPECIFIED
:DEGREES
328
root 5.03553 9.34799 11.6309 -7.62682 -25.3028 2.89246
lowerback 17.0636 1.20392 -0.999493
upperback 5.71907 1.18677 -2.94033
thorax -3.40645 0.564307 -2.76907
lowerneck 15.5131 -9.0698 -30.5821
upperneck -15.2438 -15.4569 45.9198
head 0.686199 -10.3871 25.6604
rclavicle -1.35174e-014 3.57812e-015
rhumerus -50.63 12.1976 -75.8521
rradius 101.802
rwrist 12.3539
rhand -19.0243 -18.2032
rfingers 7.12502
rthumb 7.2817 -48.0579
lclavicle -1.35174e-014 3.57812e-015
lhumerus -58.714 -13.0103 62.6335
lradius 108.278
lwrist 9.94119
lhand -14.7296 -17.5784
lfingers 7.12502
lthumb 11.4255 12.0903
rfemur -87.2336 -3.14537 20.6858
rtibia 104.251
rfoot -10.6717 13.5723
rtoes -17.1541
lfemur -84.8554 18.2106 -27.0842
ltibia 104.234
lfoot -13.286 -6.18766
ltoes -22.0935
329
root 5.04141 9.337 11.621 -8.1948 -25.2464 2.76981
lowerback 17.1129 1.22833 -0.875668
upperback 5.82554 1.24364 -2.85959
thorax -3.31643 0.593022 -2.76428
lowerneck 15.6165 -9.08574 -30.6235
upperneck -14.9126 -15.5866 45.7655
head 0.784562 -10.4358 25.479
rclavicle -9.44227e-015 4.37326e-014
rhumerus -50.2619 11.6815 -75.7223
rradius 101.742
rwrist 12.5537
rhand -18.3211 -18.0941
rfingers 7.12502
rthumb 7.96047 -47.9242
lclavicle -9.44227e-015 4.37326e-014
lhumerus -58.2208 -12.6521 62.8318
lradius 108.245
lwrist 9.48721
lhand -14.2169 -16.866
lfingers 7.12502
lthumb 11.92 12.7746
rfemur -86.5753 -3.30695 20.8061
rtibia 104.251
rfoot -10.6936 13.6216
rtoes -17.074
lfemur -84.23 18.324 -26.8234
ltibia 104.262
lfoot -13.3066 -6.27686
ltoes -22.0456
330
root 5.04711 9.32633 11.611 -8.75885 -25.1874 2.65249
lowerback 17.1601 1.25056 -0.758438
upperback 5.93114 1.29625 -2.78367
thorax -3.22633 0.619758 -2.75998
lowerneck 15.7163 -9.10036 -30.6567
upperneck -14.5804 -15.7118 45.6117
head 0.88048 -10.4824 25.3006
rclavicle 4.17448e-015 1.66979e-014
rhumerus -49.897 11.1446 -75.6088
rradius 101.656
rwrist 12.8666
rhand -17.6263 -17.9979
rfingers 7.12502
rthumb 8.63095 -47.8015
lclavicle 4.17448e-015 1.66979e-014
lhumerus -57.7437 -12.3647 63.0375
lradius 108.17
lwrist 9.04641
lhand -13.7802 -16.2163
lfingers 7.12502
lthumb 12.341 13.3995
rfemur -85.9205 -3.46372 20.9141
rtibia 104.248
rfoot -10.7175 13.6608
rtoes -17.0094
lfemur -83.6048 18.434 -26.5682
ltibia 104.284
lfoot -13.3304 -6.3665
ltoes -22.0327
331
root 5.05266 9.31504 11.6004 -9.33617 -25.1199 2.53521
lowerback 17.2308 1.26819 -0.643961
upperback 6.0391 1.34137 -2.71207
thorax -3.14623 0.642821 -2.7579
lowerneck 15.8162 -9.11393 -30.6805
upperneck -14.249 -15.8336 45.4605
head 0.973623 -10.5283 25.1272
rclavicle -3.27995e-014 6.75868e-015
rhumerus -49.5481 10.5954 -75.5155
rradius 101.559
rwrist 13.2765
rhand -16.9706 -17.927
rfingers 7.12502
rthumb 9.2637 -47.7035
lclavicle -3.27995e-014 6.75868e-015
lhumerus -57.2828 -12.1626 63.242
lradius 108.054
lwrist 8.64088
lhand -13.4047 -15.6208
lfingers 7.12502
lthumb 12.7031 13.9728
rfemur -85.2533 -3.62015 21.0138
rtibia 104.246
rfoot -10.7419 13.6879
rtoes -16.9619
lfemur -82.9661 18.5414 -26.3098
ltibia 104.303
lfoot -13.3565 -6.4629
ltoes -22.0431
332
root 5.05784 9.30464 11.5897 -9.88567 -25.042 2.42215
lowerback 17.2667 1.27908 -0.537137
upperback 6.14364 1.37703 -2.64612
thorax -3.05174 0.661471 -2.75468
lowerneck 15.907 -9.13121 -30.7
upperneck -13.9123 -15.9596 45.3103
head 1.07151 -10.576 24.9534
rclavicle -1.76918e-014 -1.59028e-015
rhumerus -49.2192 10.0338 -75.4406
rradius 101.465
rwrist 13.7742
rhand -16.3216 -17.8419
rfingers 7.12502
rthumb 9.88992 -47.5896
lclavicle -1.76918e-014 -1.59028e-015
lhumerus -56.8355 -12.0508 63.4399
lradius 107.898
lwrist 8.28848
lhand -13.0673 -15.0748
lfingers 7.12502
lthumb 13.0283 14.4983
rfemur -84.6119 -3.77559 21.102
rtibia 104.238
rfoot -10.7697 13.7021
rtoes -16.9489
lfemur -82.3508 18.6274 -26.0627
ltibia 104.311
lfoot -13.3767 -6.5554
ltoes -22.0831
333
root 5.06274 9.29513 11.5789 -10.4121 -24.9586 2.31175
lowerback 17.2708 1.2829 -0.435978
upperback 6.24721 1.4029 -2.58533
thorax -2.94199 0.675549 -2.75089
lowerneck 15.9828 -9.14937 -30.7218
upperneck -13.5654 -16.0876 45.1643
head 1.17703 -10.6242 24.7846
rclavicle -4.83047e-014 1.15295e-014
rhumerus -48.8969 9.46388 -75.3812
rradius 101.366
rwrist 14.3398
rhand -15.6755 -17.7319
rfingers 7.12502
rthumb 10.5132 -47.449
lclavicle -4.83047e-014 1.15295e-014
lhumerus -56.4009 -12.0289 63.6273
lradius 107.71
lwrist 8.00068
lhand -12.7596 -14.567
lfingers 7.12502
lthumb 13.3249 14.987
rfemur -83.9896 -3.92471 21.181
rtibia 104.225
rfoot -10.8005 13.7018
rtoes -16.9592
lfemur -81.7555 18.7 -25.8247
ltibia 104.31
lfoot -13.3918 -6.64852
ltoes -22.1183
334
root 5.06716 9.28627 11.5683 -10.9096 -24.8728 2.20114
lowerback 17.2364 1.28024 -0.339643
upperback 6.34847 1.42005 -2.52771
thorax -2.81487 0.685601 -2.74494
lowerneck 16.0616 -9.16255 -30.7515
upperneck -13.2228 -16.2117 45.0272
head 1.28147 -10.6719 24.6326
rclavicle -5.86415e-014 2.34566e-014
rhumerus -48.588 8.89755 -75.3329
rradius 101.273
rwrist 14.9459
rhand -15.0259 -17.5816
rfingers 7.12502
rthumb 11.1398 -47.2659
lclavicle -5.86415e-014 2.34566e-014
lhumerus -55.9823 -12.0918 63.8023
lradius 107.504
lwrist 7.78893
lhand -12.4704 -14.0847
lfingers 7.12502
lthumb 13.6037 15.4508
rfemur -83.3938 -4.06285 21.2546
rtibia 104.209
rfoot -10.8339 13.6878
rtoes -16.9873
lfemur -81.1897 18.7655 -25.5953
ltibia 104.305
lfoot -13.4031 -6.74396
ltoes -22.1578
335
root 5.07116 9.27714 11.5579 -11.398 -24.8012 2.09767
lowerback 17.1856 1.27612 -0.256651
upperback 6.44865 1.43307 -2.47167
thorax -2.68076 0.693633 -2.73187
lowerneck 16.1385 -9.16853 -30.7988
upperneck -12.8772 -16.3317 44.8983
head 1.38894 -10.7183 24.4989
rclavicle -1.61016e-014 -1.31198e-014
rhumerus -48.267 8.33202 -75.291
rradius 101.162
rwrist 15.5803
rhand -14.3562 -17.3602
rfingers 7.12502
rthumb 11.7856 -47.0086
lclavicle -1.61016e-014 -1.31198e-014
lhumerus -55.5882 -12.2251 63.9677
lradius 107.298
lwrist 7.66684
lhand -12.1946 -13.6163
lfingers 7.12502
lthumb 13.8695 15.9013
rfemur -82.8139 -4.17282 21.3187
rtibia 104.193
rfoot -10.8647 13.6616
rtoes -17.0203
lfemur -80.6426 18.8519 -25.3752
ltibia 104.302
lfoot -13.415 -6.8513
ltoes -22.1651
336
root 5.07532 9.26592 11.547 -11.9316 -24.7651 2.00404
lowerback 17.1844 1.27944 -0.182605
upperback 6.55762 1.45279 -2.4168
thorax -2.56321 0.704712 -2.71755
lowerneck 16.2112 -9.17044 -30.8591
upperneck -12.5278 -16.4501 44.7732
head 1.49977 -10.764 24.3757
rclavicle -6.65929e-014 1.39149e-014
rhumerus -47.931 7.76883 -75.2514
rradius 101.032
rwrist 16.2198
rhand -13.6804 -17.0916
rfingers 7.12502
rthumb 12.4373 -46.7015
lclavicle -6.65929e-014 1.39149e-014
lhumerus -55.2169 -12.4213 64.1251
lradius 107.103
lwrist 7.63448
lhand -11.922 -13.1543
lfingers 7.12502
lthumb 14.1322 16.3451
rfemur -82.204 -4.23396 21.3747
rtibia 104.182
rfoot -10.887 13.6243
rtoes -17.0539
lfemur -80.0662 18.9973 -25.1461
ltibia 104.31
lfoot -13.4309 -6.97846
ltoes -22.1531
337
root 5.07904 9.25442 11.5362 -12.464 -24.7385 1.92129
lowerback 17.1799 1.28077 -0.129102
upperback 6.66482 1.46644 -2.36119
thorax -2.44667 0.712535 -2.68959
lowerneck 16.2774 -9.16646 -30.9341
upperneck -12.1725 -16.564 44.6481
head 1.61333 -10.8068 24.2608
rclavicle -5.56597e-015 8.34896e-015
rhumerus -47.5825 7.24182 -75.2213
rradius 100.892
rwrist 16.8323
rhand -13.0101 -16.8103
rfingers 7.12502
rthumb 13.0834 -46.3799
lclavicle -5.56597e-015 8.34896e-015
lhumerus -54.8756 -12.6549 64.2761
lradius 106.928
lwrist 7.67652
lhand -11.6429 -12.6985
lfingers 7.12502
lthumb 14.4011 16.7819
rfemur -81.6036 -4.26996 21.418
rtibia 104.174
rfoot -10.9066 13.5763
rtoes -17.0915
lfemur -79.4978 19.1604 -24.9255
ltibia 104.319
lfoot -13.4474 -7.11703
ltoes -22.1242
338
root 5.08211 9.24319 11.5253 -12.976 -24.7098 1.84243
lowerback 17.1552 1.27704 -0.0938358
upperback 6.7675 1.47091 -2.30111
thorax -2.32542 0.715573 -2.64437
lowerneck 16.3335 -9.1577 -31.0204
upperneck -11.8125 -16.6721 44.5191
head 1.72822 -10.8453 24.1491
rclavicle -4.16454e-014 8.74653e-015
rhumerus -47.2097 6.75899 -75.2004
rradius 100.729
rwrist 17.4031
rhand -12.3549 -16.5305
rfingers 7.12502
rthumb 13.7149 -46.0585
lclavicle -4.16454e-014 8.74653e-015
lhumerus -54.5602 -12.9094 64.4266
lradius 106.771
lwrist 7.76621
lhand -11.3492 -12.2535
lfingers 7.12502
lthumb 14.6841 17.2066
rfemur -81.0259 -4.29106 21.4543
rtibia 104.166
rfoot -10.9234 13.5148
rtoes -17.1312
lfemur -78.9529 19.323 -24.7129
ltibia 104.325
lfoot -13.4615 -7.26087
ltoes -22.0988
